<svg width="64" height="64" viewBox="0 0 64 64" fill="none" xmlns="http://www.w3.org/2000/svg">
<ellipse cx="40" cy="32" rx="18" ry="24" stroke="#B277CF" stroke-width="3"/>
<path d="M6 8V6.5H4.5V8H6ZM6 56H4.5V57.5H6V56ZM6 9.5H22V6.5H6V9.5ZM7.5 56V8H4.5V56H7.5ZM22 54.5H6V57.5H22V54.5ZM32.5 44C32.5 49.799 27.799 54.5 22 54.5V57.5C29.4558 57.5 35.5 51.4558 35.5 44H32.5ZM22 33.5C27.799 33.5 32.5 38.201 32.5 44H35.5C35.5 36.5442 29.4558 30.5 22 30.5V33.5ZM22 33.5C29.4558 33.5 35.5 27.4558 35.5 20H32.5C32.5 25.799 27.799 30.5 22 30.5V33.5ZM35.5 20C35.5 12.5442 29.4558 6.5 22 6.5V9.5C27.799 9.5 32.5 14.201 32.5 20H35.5Z" fill="#ED5A5A"/>
</svg>
