<svg width="64" height="64" viewBox="0 0 64 64" fill="none" xmlns="http://www.w3.org/2000/svg">
<ellipse cx="40" cy="32" rx="18" ry="24" stroke="#B277CF" stroke-width="4"/>
<path d="M6 8V6H4V8H6ZM6 56H4V58H6V56ZM6 10H22V6H6V10ZM8 56V8H4V56H8ZM22 54H6V58H22V54ZM32 44C32 49.5228 27.5228 54 22 54V58C29.732 58 36 51.732 36 44H32ZM22 34C27.5228 34 32 38.4772 32 44H36C36 36.268 29.732 30 22 30V34ZM22 34C29.732 34 36 27.732 36 20H32C32 25.5228 27.5228 30 22 30V34ZM36 20C36 12.268 29.732 6 22 6V10C27.5228 10 32 14.4772 32 20H36Z" fill="#ED5A5A"/>
</svg>
